<svg width="144" height="144" xmlns="http://www.w3.org/2000/svg" fill-rule="evenodd" clip-rule="evenodd">
  <path d="M54.392 64.955c0-5.182 4.185-9.384 9.354-9.384h65.69c5.166 0 9.354 4.17 9.354 9.385v53.012c0 5.183-4.185 9.384-9.354 9.384h-65.69c-5.166 0-9.354-4.168-9.354-9.383zm6.25-.037c0-1.715 1.373-3.105 3.137-3.105h65.623c1.732 0 3.136 1.407 3.136 3.105v53.087c0 1.715-1.373 3.105-3.137 3.105H63.78c-1.733 0-3.137-1.408-3.137-3.105zm27.662 44.79a7.61 7.61 0 0 0 1.097-.082 7.551 7.551 0 0 0 1.677-.46c.32-.13.632-.286.934-.454l.07-.04.07-.04a15.411 15.411 0 0 1-1.123-1.881c-.217-.432-.41-.877-.6-1.323a39.818 39.818 0 0 1-1.905-5.647c-.21-.82-.39-1.644-.556-2.474a60.29 60.29 0 0 1-.67-4.116l-.032-.244-.015-.122a11.752 11.752 0 0 0-1.313.842c-.573.425-1.105.902-1.593 1.42a11.5 11.5 0 0 0-.68.784 11.438 11.438 0 0 0-1.986 3.975c-.183.667-.312 1.35-.36 2.042a9.012 9.012 0 0 0 .307 3.013c.08.288.168.576.278.855.1.256.22.506.352.748a6.472 6.472 0 0 0 1.368 1.724c.382.34.806.63 1.27.844.38.177.782.302 1.193.38.192.038.385.063.58.085a8.23 8.23 0 0 0 1.498.171l.14.002zm7.73-5.476a29.042 29.042 0 0 0 1.916-4.007c.388-.998.718-2.018 1.026-3.043a54.449 54.449 0 0 0 1.397-5.807c-.126-.022-.254-.042-.38-.062-.27-.037-.54-.065-.81-.09l-.483-.065c-.578-.07-1.156-.12-1.737-.14a23.163 23.163 0 0 0-1.344-.004 20.524 20.524 0 0 0-2.677.114l-.13.016-.11.014c.02.268.046.536.072.805a50.517 50.517 0 0 0 .749 4.945c.01.043.08.39.093.443.068.294.146.585.223.875a45.442 45.442 0 0 0 .999 3.247c.148.425.3.85.474 1.266a16.087 16.087 0 0 0 .718 1.494zm-6.635-79.848A9.35 9.35 0 0 0 80.043 15h-65.69C9.185 15 5 19.2 5 24.384v53.012c0 5.215 4.188 9.384 9.355 9.384H49.14v-6.242H14.387c-1.73 0-3.135-1.407-3.135-3.104V24.346c0-1.714 1.372-3.104 3.135-3.104H80.01c1.733 0 3.137 1.407 3.137 3.104V50.33H89.4zm-1.413 91.096c-.13 0-.13 0-.26-.012-.42-.055-.84-.11-1.26-.163l-.476-.06-.42-.08c-.45-.097-.897-.21-1.336-.35-.934-.295-1.832-.7-2.674-1.2-1.205-.714-2.303-1.615-3.174-2.716a10.48 10.48 0 0 1-1.648-2.984c-.042-.12-.08-.24-.122-.358l-.12-.338a15.183 15.183 0 0 1-.684-2.868 14.906 14.906 0 0 1-.11-2.793c.09-1.575.426-3.14.966-4.618a16.15 16.15 0 0 1 1.838-3.576c.266-.39.545-.77.847-1.134.325-.39.67-.765 1.026-1.127a18.242 18.242 0 0 1 3.722-2.918c.89-.523 1.825-.962 2.79-1.328l.008-.004c-.005-.35-.005-.703-.005-1.054a92.027 92.027 0 0 1 .029-1.72 79.508 79.508 0 0 1 .228-3.492h-13.07c-.053-.002-.106-.002-.158-.008a1.51 1.51 0 0 1-1.334-1.334c-.005-.053-.005-.105-.008-.157v-2.687c.003-.053.003-.105.008-.157a1.51 1.51 0 0 1 1.336-1.336c.052-.005.105-.005.157-.007h13.786l.13-.725c.05-.264.102-.528.154-.793.235-1.172.496-2.34.783-3.5.028-.15.058-.3.088-.45.05-.228.1-.456.155-.683.04-.16.078-.32.15-.47a1.525 1.525 0 0 1 .808-.74c.15-.057.31-.09.47-.1.106-.004.213.003.32.02.05.01.103.023.155.035l2.747.768c.05.017.103.032.153.052.1.04.195.09.285.15a1.515 1.515 0 0 1 .585 1.706c-.035.107-.078.193-.123.295-.054.12-.067.153-.12.275-.075.18-.148.364-.218.548l-.022.06a61.535 61.535 0 0 0-.73 3.55h26.05c.053.002.106.002.158.008a1.512 1.512 0 0 1 1.335 1.335c.005.052.005.104.008.157v2.688c-.003.053-.003.105-.008.157a1.51 1.51 0 0 1-1.335 1.336c-.052.005-.105.005-.157.008H92.83a57.757 57.757 0 0 0-.275 3.716c-.015.374-.024.747-.033 1.12l-.002.08c.23-.03.23-.028.462-.055l.566-.055a27.151 27.151 0 0 1 5.385.058c.275.03.548.067.82.102.134.017.268.03.4.046a20.321 20.321 0 0 1 3.859.862c1.303.428 2.56.99 3.753 1.667 1.656.94 3.18 2.105 4.5 3.478a19.143 19.143 0 0 1 1.813 2.187 22.824 22.824 0 0 1 3.078 6.159c.315.98.56 1.98.742 2.993l.014.084a25.967 25.967 0 0 1 .218.97c.03.16.07.318.083.48.01.103.007.208-.006.31a1.512 1.512 0 0 1-1.046 1.244c-.05.015-.1.025-.152.038a96.329 96.329 0 0 1-2.098.388l-.352.058c-.1.017-.37.066-.508.074a1.511 1.511 0 0 1-1.571-1.336c-.005-.054-.005-.108-.008-.162v-1.325a18.148 18.148 0 0 0-3.257-7.141c-.344-.45-.716-.876-1.115-1.276a12.82 12.82 0 0 0-2.367-1.862l-.018-.012c-.044.233-.09.466-.136.7a57.152 57.152 0 0 1-1.452 5.686c-.31.998-.647 1.988-1.038 2.957a31.53 31.53 0 0 1-4.036 7.145c-.13.17-.276.335-.418.497-.27.306-.548.602-.84.887-.752.74-1.58 1.402-2.475 1.962a13.852 13.852 0 0 1-2.994 1.408 14.89 14.89 0 0 1-2.51.592c-.47.07-.945.115-1.42.146l-.406.02zM49.26 62.05H37.68l-4.132 9.837c-.045.094-.053.12-.115.204-.14.19-.345.328-.574.383-.103.024-.13.02-.233.027H27.9c-.04-.003-.082-.003-.123-.008a.993.993 0 0 1-.873-.908c-.01-.123.002-.248.037-.367.013-.04.03-.078.043-.117l17.33-39.772c.047-.092.055-.117.117-.2.14-.186.343-.32.57-.374.1-.023.127-.02.23-.026h3.94c.1.005.128.003.228.026.227.054.43.188.57.374.063.083.07.108.117.2l8.666 19.89a9.836 9.836 0 0 0-5.68 2.103l-5.874-14.256-7.164 17.28H50.5a9.92 9.92 0 0 0-1.237 4.818v.89z" fill="#263238"/>
</svg>
