<svg width="144" height="144" xmlns="http://www.w3.org/2000/svg" fill-rule="evenodd" clip-rule="evenodd"><path d="M128.785 71.434c0-31.025-25.15-56.175-56.175-56.175-31.024 0-56.174 25.15-56.174 56.174s25.15 56.175 56.174 56.175c31.025 0 56.175-25.152 56.175-56.176zm-106.732 0c0-27.922 22.635-50.557 50.557-50.557s50.558 22.635 50.558 50.557-22.636 50.557-50.558 50.557-50.557-22.634-50.557-50.556zM74.08 56.75c0-8.11 6.598-14.685 14.7-14.685 8.117 0 14.7 6.574 14.7 14.685v29.426c0 8.11-6.6 14.686-14.7 14.686-8.12 0-14.7-6.574-14.7-14.686zM56.633 88.034v-2.94h5.697c1.6 0 2.93-1.316 2.93-2.94 0-1.634-1.312-2.94-2.93-2.94h-3.88l5.56-8.53c.615-.923 1.05-1.647 1.305-2.17.255-.522.382-1.044.382-1.567 0-.643-.25-1.21-.754-1.698-.502-.49-1.128-.734-1.88-.734-.48 0-.89.087-1.224.26-.336.175-.64.426-.916.755-.275.33-.526.68-.754 1.055-.227.376-.51.838-.844 1.387l-5.566 8.943-5.507-8.943c-.844-1.38-1.477-2.3-1.9-2.763-.42-.463-1.04-.694-1.858-.694-.777 0-1.43.247-1.96.743-.528.495-.793 1.084-.793 1.768 0 .415.13.904.392 1.467.26.562.707 1.346 1.336 2.35l5.398 8.37h-4.195c-1.6 0-2.93 1.316-2.93 2.94 0 1.635 1.31 2.94 2.93 2.94h5.992v2.94h-5.992c-1.6 0-2.93 1.316-2.93 2.94 0 1.634 1.31 2.94 2.93 2.94h5.992v3.31c0 1.232.275 2.146.824 2.742.548.597 1.265.895 2.15.895.87 0 1.587-.302 2.15-.905.562-.603.843-1.514.843-2.733v-3.31h5.697c1.6 0 2.93-1.316 2.93-2.94 0-1.635-1.312-2.94-2.93-2.94zm40.9-18.962v17.173c0 4.825-3.928 8.737-8.754 8.737-4.836 0-8.755-3.93-8.755-8.737v-1.407zm0-9.82v-2.57c0-4.808-3.92-8.737-8.754-8.737-4.826 0-8.755 3.91-8.755 8.737v18.334z" fill="#263238"/></svg>