<svg width="144" height="144" xmlns="http://www.w3.org/2000/svg" fill-rule="evenodd" clip-rule="evenodd"><path d="M101.43 45.242l-80.792 72.684 111.285-49.773-30.494-22.91zm7.69 39.38l-66.89 28.71 67.02-20.578-.13-8.13zm-90.906 24.184L83.95 33.868 60.72 20.862l-42.506 87.944zm69.462-69.16l-39.91 45.21 42.172-38.262-2.262-6.95zM115.32 81.96v12.712c0 1.45-.927 2.723-2.274 3.12L8.193 128.68l-.028-.108c-2.087.252-4.185-1.86-3.368-4.27.087-.468 51.81-109.32 51.81-109.32.787-1.658 2.75-2.304 4.317-1.42l29.723 16.756c.914.515 1.465 1.415 1.602 2.378l2.888 9.64 4.04-3.627c1.12-1.008 2.772-1.063 3.954-.132l35.62 28.045c1.924 1.514 1.54 4.614-.69 5.578l-22.74 9.76z" fill="#263237"/></svg>