<svg width="144" height="144" xmlns="http://www.w3.org/2000/svg" fill-rule="evenodd" clip-rule="evenodd"><path d="M54.392 64.955c0-5.182 4.185-9.384 9.354-9.384h65.69c5.166 0 9.354 4.17 9.354 9.385v53.012c0 5.183-4.185 9.384-9.354 9.384h-65.69c-5.166 0-9.354-4.168-9.354-9.383zm6.25-.037c0-1.715 1.373-3.105 3.137-3.105h65.623c1.732 0 3.136 1.407 3.136 3.105v53.087c0 1.715-1.373 3.105-3.137 3.105H63.78c-1.733 0-3.137-1.408-3.137-3.105zm27.662 44.79c.367-.002.733-.027 1.097-.082.575-.087 1.138-.244 1.677-.46.32-.13.632-.286.934-.454l.07-.04.07-.04c-.09-.127-.175-.255-.26-.384-.314-.483-.604-.98-.863-1.497-.217-.432-.41-.877-.6-1.323-.268-.635-.52-1.276-.755-1.925-.444-1.22-.827-2.463-1.15-3.722-.21-.82-.39-1.644-.556-2.474-.272-1.364-.493-2.737-.67-4.116l-.032-.244-.015-.122c-.133.073-.263.148-.393.226-.316.192-.623.396-.92.616-.573.425-1.105.902-1.593 1.42-.237.252-.467.512-.68.784-.915 1.178-1.59 2.536-1.986 3.975-.183.667-.312 1.35-.36 2.042-.07 1.013.037 2.034.307 3.013.08.288.168.576.278.855.1.256.22.506.352.748.354.648.817 1.232 1.368 1.724.382.34.806.63 1.27.844.38.177.782.302 1.193.38.192.038.385.063.58.085.144.027.288.054.433.077.352.054.707.086 1.065.094l.14.002zm7.73-5.476c.74-1.282 1.38-2.626 1.916-4.007.388-.998.718-2.018 1.026-3.043.574-1.91 1.036-3.848 1.397-5.807-.126-.022-.254-.042-.38-.062-.27-.037-.54-.065-.81-.09l-.483-.065c-.578-.07-1.156-.12-1.737-.14-.448-.016-.896-.014-1.344-.004-.192-.004-.383-.006-.574-.006-.703.004-1.404.044-2.103.12l-.13.016-.11.014c.02.268.046.536.072.805.13 1.264.3 2.524.525 3.775.07.39.144.78.224 1.17.01.043.08.39.093.443.068.294.146.585.223.875.186.695.388 1.386.607 2.072.125.393.256.785.392 1.175.148.425.3.85.474 1.266.148.356.312.706.485 1.05.075.15.153.297.233.444zm-6.635-79.848C89.4 19.17 85.21 15 80.043 15h-65.69C9.185 15 5 19.2 5 24.384v53.012c0 5.215 4.188 9.384 9.355 9.384H49.14v-6.242H14.387c-1.73 0-3.135-1.407-3.135-3.104V24.346c0-1.714 1.372-3.104 3.135-3.104H80.01c1.733 0 3.137 1.407 3.137 3.104V50.33H89.4zm-1.413 91.096c-.13 0-.13 0-.26-.012-.42-.055-.84-.11-1.26-.163l-.476-.06-.42-.08c-.45-.097-.897-.21-1.336-.35-.934-.295-1.832-.7-2.674-1.2-1.205-.714-2.303-1.615-3.174-2.716-.54-.683-.99-1.433-1.345-2.228-.11-.248-.21-.5-.303-.756-.042-.12-.08-.24-.122-.358l-.12-.338c-.07-.204-.136-.41-.198-.618-.218-.736-.382-1.49-.486-2.25-.125-.925-.16-1.862-.11-2.793.09-1.575.426-3.14.966-4.618.46-1.263 1.08-2.466 1.838-3.576.266-.39.545-.77.847-1.134.325-.39.67-.765 1.026-1.127 1.11-1.127 2.36-2.115 3.722-2.918.89-.523 1.825-.962 2.79-1.328l.008-.004c-.005-.35-.005-.703-.005-1.054.003-.325.007-.65.012-.973.005-.25.01-.498.017-.747.014-.325.03-.65.048-.975.048-.84.108-1.68.18-2.517h-13.07c-.053-.002-.106-.002-.158-.008-.104-.01-.207-.032-.306-.065-.453-.147-.816-.51-.963-.963-.032-.1-.054-.202-.065-.306-.005-.053-.005-.105-.008-.157v-2.687c.003-.053.003-.105.008-.157.01-.104.033-.207.066-.307.148-.454.51-.817.964-.964.1-.032.202-.054.306-.065.052-.005.105-.005.157-.007h13.786l.13-.725c.05-.264.102-.528.154-.793.235-1.172.496-2.34.783-3.5.028-.15.058-.3.088-.45.05-.228.1-.456.155-.683.04-.16.078-.32.15-.47.12-.24.3-.447.524-.594.09-.058.185-.107.284-.146.15-.057.31-.09.47-.1.106-.004.213.003.32.02.05.01.103.023.155.035l2.747.768c.05.017.103.032.153.052.1.04.195.09.285.15.45.307.706.85.65 1.392-.01.106-.032.212-.065.314-.035.107-.078.193-.123.295-.054.12-.067.153-.12.275-.075.18-.148.364-.218.548l-.022.06c-.072.304-.142.61-.21.917-.192.874-.366 1.75-.52 2.633h26.05c.053.002.106.002.158.008.104.012.207.034.307.066.452.147.816.51.963.963.032.1.054.202.065.306.005.052.005.104.008.157v2.688c-.003.053-.003.105-.008.157-.01.105-.033.207-.065.307-.147.453-.51.816-.963.963-.1.033-.203.055-.307.066-.052.005-.105.005-.157.008H92.83c-.128 1.236-.227 2.475-.275 3.716-.015.374-.024.747-.033 1.12l-.002.08c.23-.03.23-.028.462-.055l.566-.055c.377-.03.755-.058 1.133-.076.85-.04 1.703-.04 2.552 0 .568.027 1.135.072 1.7.134.275.03.548.067.82.102.134.017.268.03.4.046.33.04.658.09.985.146.974.168 1.935.407 2.874.716 1.303.428 2.56.99 3.753 1.667 1.656.94 3.18 2.105 4.5 3.478.658.683 1.264 1.415 1.813 2.187.415.58.797 1.186 1.152 1.806.79 1.38 1.44 2.84 1.926 4.353.315.98.56 1.98.742 2.993l.014.084c.038.154.075.31.11.464.038.168.074.337.108.506.03.16.07.318.083.48.01.103.007.208-.006.31-.06.47-.346.892-.76 1.122-.09.05-.187.09-.286.122-.05.015-.1.025-.152.038-.35.07-.698.136-1.048.2-.35.065-.7.127-1.05.188l-.352.058c-.1.017-.37.066-.508.074-.11.006-.217 0-.324-.018-.542-.09-1.002-.48-1.177-1.002-.034-.102-.058-.208-.07-.316-.005-.054-.005-.108-.008-.162v-1.325c-.188-.867-.433-1.72-.742-2.55-.405-1.09-.918-2.14-1.525-3.134-.306-.5-.634-.99-.99-1.457-.344-.45-.716-.876-1.115-1.276-.712-.715-1.51-1.334-2.367-1.862l-.018-.012c-.044.233-.09.466-.136.7-.06.302-.124.604-.19.906-.354 1.61-.77 3.206-1.262 4.78-.31.998-.647 1.988-1.038 2.957-.667 1.653-1.474 3.248-2.41 4.764-.334.538-.682 1.066-1.046 1.583-.188.268-.378.538-.58.798-.13.17-.276.335-.418.497-.27.306-.548.602-.84.887-.752.74-1.58 1.402-2.475 1.962-.937.587-1.944 1.06-2.994 1.408-.817.27-1.658.467-2.51.592-.47.07-.945.115-1.42.146l-.406.02zM49.26 62.05H37.68l-4.132 9.837c-.045.094-.053.12-.115.204-.14.19-.345.328-.574.383-.103.024-.13.02-.233.027H27.9c-.04-.003-.082-.003-.123-.008-.082-.01-.163-.03-.24-.06-.352-.137-.6-.47-.633-.848-.01-.123.002-.248.037-.367.013-.04.03-.078.043-.117l17.33-39.772c.047-.092.055-.117.117-.2.14-.186.343-.32.57-.374.1-.023.127-.02.23-.026h3.94c.1.005.128.003.228.026.227.054.43.188.57.374.063.083.07.108.117.2l8.666 19.89c-2.138.09-4.102.862-5.68 2.103l-5.874-14.256-7.164 17.28h10.466c-.79 1.428-1.237 3.07-1.237 4.818v.89z" fill="#263238"/></svg>