<svg width="144" height="144" xmlns="http://www.w3.org/2000/svg" fill-rule="evenodd" clip-rule="evenodd"><path d="M129 21H15C8.373 21 3 26.373 3 33v78c0 6.627 5.373 12 12 12h114c6.627 0 12-5.373 12-12V33c0-6.627-5.373-12-12-12zm0 96H15c-3.312 0-6-2.685-6-6V33c0-3.312 2.688-6 6-6h114c3.312 0 6 2.688 6 6v78c0 3.315-2.688 6-6 6zM91.966 75.52l29.93 26.834c1.218 1.218 1.218 3.197 0 4.415-1.22 1.218-3.198 1.218-4.416 0L87.264 79.797l4.702-4.28zm-35.161 4.148l-30.285 27.04c-1.218 1.22-3.197 1.22-4.415 0-1.218-1.218-1.218-3.197 0-4.415L52.103 75.39l4.7 4.278zm65.09-39.89L74.56 82.856c-.106.15-.17.323-.304.457-.63.63-1.462.92-2.287.898-.825.023-1.657-.268-2.283-.898-.135-.134-.2-.307-.304-.457L22.105 39.84c-1.218-1.22-1.218-3.198 0-4.416 1.218-1.218 3.197-1.218 4.415 0l45.45 41.19 45.51-41.25c1.218-1.22 3.197-1.22 4.415 0 1.22 1.217 1.22 3.196 0 4.415z"/></svg>