<svg width="144" height="144" xmlns="http://www.w3.org/2000/svg" fill-rule="evenodd" clip-rule="evenodd"><path d="M128.174 15H15.826C9.296 15 4 20.326 4 26.895v89.21C4 122.675 9.295 128 15.826 128h112.348c6.53 0 11.826-5.326 11.826-11.895v-89.21C140 20.325 134.705 15 128.174 15zm0 107.053H15.826c-3.264 0-5.913-2.665-5.913-5.948v-65.42h124.174v65.42c0 3.283-2.646 5.948-5.913 5.948zm-59.13-8.92h5.913c1.635 0 2.956-1.33 2.956-2.975v-5.947c0-1.644-1.322-2.973-2.956-2.973h-5.913c-1.635 0-2.957 1.33-2.957 2.974v5.948c0 1.64 1.322 2.974 2.956 2.974zm-38.5-6.287c0-1.484-1.204-2.686-2.687-2.686h-6.35c-1.483 0-2.686 1.202-2.686 2.686l.002.5c0 1.484 1.202 2.686 2.686 2.686h6.35c1.482 0 2.685-1.202 2.685-2.686v-.5zm23.654 0c0-1.484-1.203-2.686-2.686-2.686h-6.35c-1.483 0-2.685 1.202-2.685 2.686v.5c0 1.484 1.202 2.686 2.686 2.686h6.35c1.482 0 2.685-1.202 2.685-2.686v-.5zm14.845-14.53h5.913c1.635 0 2.957-1.33 2.957-2.974v-5.947c0-1.645-1.322-2.974-2.956-2.974h-5.913c-1.63 0-2.957 1.33-2.957 2.975v5.947c0 1.642 1.327 2.974 2.956 2.974zm56.078-6.25c0-1.483-1.2-2.686-2.685-2.686h-6.35c-1.482 0-2.685 1.203-2.685 2.686v.5c0 1.484 1.203 2.687 2.686 2.687h6.35c1.483 0 2.685-1.203 2.685-2.686v-.5zm-23.6 0c0-1.483-1.2-2.686-2.685-2.686h-6.35c-1.482 0-2.685 1.203-2.685 2.686v.5c0 1.484 1.203 2.687 2.686 2.687h6.35c1.483 0 2.685-1.203 2.685-2.686v-.5zm-70.977 0c0-1.483-1.203-2.686-2.686-2.686h-6.35c-1.483 0-2.686 1.203-2.686 2.686l.002.5c0 1.484 1.202 2.687 2.686 2.687h6.35c1.482 0 2.685-1.203 2.685-2.686v-.5zm23.655 0c0-1.483-1.203-2.686-2.686-2.686h-6.35c-1.483 0-2.685 1.203-2.685 2.686v.5c0 1.484 1.202 2.687 2.686 2.687h6.35c1.482 0 2.685-1.203 2.685-2.686v-.5zM69.043 71.5h5.913c1.635 0 2.957-1.33 2.957-2.974V62.58c0-1.645-1.322-2.975-2.956-2.975h-5.913c-1.63 0-2.957 1.33-2.957 2.974v5.946c0 1.642 1.327 2.974 2.956 2.974zm-14.845-6.08c0-1.483-1.203-2.685-2.686-2.685h-6.35c-1.483 0-2.685 1.202-2.685 2.686v.5c0 1.485 1.202 2.687 2.686 2.687h6.35c1.482 0 2.685-1.202 2.685-2.686v-.5zm47.323 0c0-1.483-1.2-2.685-2.685-2.685h-6.35c-1.482 0-2.685 1.202-2.685 2.686v.5c0 1.485 1.203 2.687 2.686 2.687h6.35c1.483 0 2.685-1.202 2.685-2.686v-.5zm23.6 0c0-1.483-1.2-2.685-2.685-2.685h-6.35c-1.482 0-2.685 1.202-2.685 2.686v.5c0 1.485 1.203 2.687 2.686 2.687h6.35c1.483 0 2.685-1.202 2.685-2.686v-.5zm8.967-20.683H9.913V26.895c0-3.286 2.65-5.948 5.913-5.948h112.348c3.267 0 5.913 2.662 5.913 5.948z" fill="#263238"/></svg>