<svg width="240" height="240" viewBox="0 0 240 240" xmlns="http://www.w3.org/2000/svg"><title>logo</title><desc>Created with Sketch.</desc><path d="M106.486 83.134l-.23.733.315.325c12.872-4.718 25.742-10.413 40.025-10.576 4.71 0 9.418.163 12.557 4.394 2.51 3.58 4.866 12.04 4.866 16.433 0 5.37-1.1 13.342-43.478 64.107-3.453 4.23-1.57 5.532-.157 6.02 1.884.814 28.41-22.942 65.923-67.036 3.453-3.905 9.888-15.13 17.893-15.13 4.394 0 6.905 7.97 6.905 10.575 0 2.277-4.08 8.297-5.336 10.087-6.75 9.762-35.003 53.53-34.846 63.293-.157 1.464 1.1 2.93 2.197 2.44 13.657-6.67 37.67-30.914 51.797-62.642-.627-1.953-.784-3.905-.784-6.02 0-5.532 9.417-16.76 11.772-16.76 3.14 0 4.237 6.346 4.08 8.624-1.412 35.96-46.302 92.58-65.765 95.51-5.494.813-17.108-6.67-17.108-16.108 0-10.088 5.964-24.732 9.103-34.006l-.314-.326-21.973 24.57C127.447 180.026 118.343 188 111.123 188c-6.28 0-14.597-14.156-13.656-19.688.942-4.555-2.982-5.532 45.832-61.015 1.726-2.115 4.865-5.044 4.865-7.973 0-3.09-2.825-4.067-5.494-4.067-6.264 0-22.384 6.464-34.34 12.126-1.54 1.28-5.163 4.452-8.172 8.31-3.936 5.048-6.454 10.803-6.454 10.803-1.256 2.116-2.197 4.23-4.238 5.207-3.453 1.627-9.26 2.278-12.87 3.092l-26.84 29.287C44.42 169.94 25.27 188 18.05 188c-2.197 0-3.767-1.79-3.767-4.068 0-4.556 6.592-13.016 9.575-16.27 4.865-5.695 9.417-8.3 16.323-10.25l18.365-20.177-23.386 1.953c-1.1.162-7.692.162-8.006-2.116-.628-4.555 0-8.46 4.08-11.226 4.866-3.255 15.226-6.67 21.19-7.81l24.015-4.72c5.178-7.158 17.892-29.612 17.892-37.584 0-3.255-2.355-3.092-5.023-3.092-.315 0-1.1-.65-13.028 1.302-18.05 3.09-36.1 7.81-52.738 15.294l.314.326 8.16-.163c1.1 0 2.984-.164 2.984 1.463 0 1.953-3.453 2.44-4.71 2.766l-18.206 5.857C1.413 102.904 0 100.95 0 98.023c0-4.72 8.947-20.99 12.086-24.895 6.12-7.972 14.597-9.762 23.7-11.877C76.91 51.49 88.68 51 97.942 51c5.65 0 16.167.65 16.167 8.624 0 5.22-3.305 14.17-7.624 23.51z" fill="#fff"/></svg>